<?xml version="1.0" encoding="UTF-8"?>
<svg id="Layer_1" xmlns="http://www.w3.org/2000/svg" version="1.1" viewBox="0 0 800 800">
  <!-- Generator: Adobe Illustrator 30.3.0, SVG Export Plug-In . SVG Version: 2.1.3 Build 182)  -->
  <defs>
    <style>
      .st0 {
        fill: #fff;
      }
    </style>
  </defs>
  <path class="st0" d="M400,0C179.1,0,0,179.1,0,400s179.1,400,400,400,400-179.1,400-400S620.9,0,400,0ZM262.5,200c20.7,0,37.5,16.8,37.5,37.5s-16.8,37.5-37.5,37.5-37.5-16.8-37.5-37.5,16.8-37.5,37.5-37.5ZM300.3,549.6h-74.9v-249.7h74.9v249.7ZM600.2,549.6h-74.9v-136.1c0-27.9-8.1-55.9-41-55.9s-59.1,27.9-59.1,56.6v135.5h-75.2v-250.5h75.2v34.7c23.1-29.3,55.6-42.6,91.9-42.6s83,18.1,83,116.6v141.7Z"/>
</svg>